<svg xmlns="http://www.w3.org/2000/svg" width="246" height="52" viewBox="0 0 246 52">
  <defs>
    <style>
      .cls-1 {
        fill: #d40000;
      }

      .cls-2 {
        fill: #fff;
      }
    </style>
  </defs>
  <g id="Group_3" data-name="Group 3" transform="translate(-3362 302)">
    <path id="Path_48" data-name="Path 48" class="cls-2" d="M0,8.32A8.32,8.32,0,0,1,8.32,0H43.68A8.32,8.32,0,0,1,52,8.32V43.68A8.32,8.32,0,0,1,43.68,52H8.32A8.32,8.32,0,0,1,0,43.68Z" transform="translate(3362 -302)"/>
    <path id="Path_49" data-name="Path 49" class="cls-1" d="M38.148,35.775a12.816,12.816,0,0,0,2.586-4.424,15.147,15.147,0,0,0,.9-5.312,15.153,15.153,0,0,0-.9-5.315A13.141,13.141,0,0,0,38.148,16.3a11.8,11.8,0,0,0-4.066-2.994,12.385,12.385,0,0,0-5.255-1.094H12.352V39.83h5.384V17.585h11.09A6.742,6.742,0,0,1,32.787,18.7l.006,0,.007,0A7.449,7.449,0,0,1,35.374,21.7a10.274,10.274,0,0,1,.877,4.339,9.98,9.98,0,0,1-.877,4.272,7.569,7.569,0,0,1-2.587,3.035,6.743,6.743,0,0,1-3.962,1.112h-2.75A4.425,4.425,0,0,0,21.832,39v.833h6.994a12.9,12.9,0,0,0,5.248-1.058l.007,0,.007,0A12.2,12.2,0,0,0,38.148,35.775Z" transform="translate(3362 -302.213)"/>
    <path id="Path_50" data-name="Path 50" class="cls-2" d="M102.241,25.874a15.317,15.317,0,0,1-.928,5.43,12.906,12.906,0,0,1-2.639,4.478,12.37,12.37,0,0,1-4.123,3.008A13.243,13.243,0,0,1,89.2,39.855H74.939a3.892,3.892,0,0,1,3.715-4H89.2A8.3,8.3,0,0,0,94.032,34.5a9.086,9.086,0,0,0,3.121-3.631,11.571,11.571,0,0,0,1.041-4.992,11.884,11.884,0,0,0-1.041-5.065,8.962,8.962,0,0,0-3.121-3.6A8.3,8.3,0,0,0,89.2,15.855H72.9v24H68.848v-28H89.2a12.676,12.676,0,0,1,5.349,1.1,11.93,11.93,0,0,1,4.123,3.009,13.26,13.26,0,0,1,2.639,4.478A15.328,15.328,0,0,1,102.241,25.874Zm61.7,1.981a3.675,3.675,0,0,0,3.715-4h-19.8a3.675,3.675,0,0,0,3.715,4Zm-34.361,0a3.683,3.683,0,0,0,3.752-4H113.5a3.682,3.682,0,0,0,3.752,4Zm7.17,12H107.441v-28h29.308v4H111.49v20h25.259Zm34.4-24H145.812v24h-4.049v-28h29.382v4Zm35.734,16a6.677,6.677,0,0,1-1.337,4.036,9.639,9.639,0,0,1-3.678,2.9,12.137,12.137,0,0,1-5.09,1.065H174.117c0-2.239,1.337-4,3.751-4h18.907a7.873,7.873,0,0,0,3.01-.551,5.7,5.7,0,0,0,2.229-1.431,2.94,2.94,0,0,0,.818-2.019v-1.98H184.258a10.044,10.044,0,0,1-5.088-1.359,10.809,10.809,0,0,1-3.678-3.633,9.741,9.741,0,0,1-1.374-5.027v-8h4.049v8a5.99,5.99,0,0,0,.817,3.01,6.359,6.359,0,0,0,2.23,2.2,6.179,6.179,0,0,0,3.045.808h18.573V11.856h4.049v20Zm39.968-5.98a15.317,15.317,0,0,1-.929,5.43,13.524,13.524,0,0,1-2.637,4.478,12.374,12.374,0,0,1-4.123,3.008,13.509,13.509,0,0,1-5.349,1.065h-14.3a3.721,3.721,0,0,1,3.751-4h10.549a8.377,8.377,0,0,0,4.829-1.359,8.707,8.707,0,0,0,3.083-3.631,11.072,11.072,0,0,0,1.078-4.992,11.37,11.37,0,0,0-1.078-5.065,8.583,8.583,0,0,0-3.083-3.6,8.377,8.377,0,0,0-4.829-1.359H217.5v24h-4.049v-28h20.355a12.921,12.921,0,0,1,5.348,1.1,11.947,11.947,0,0,1,4.124,3.009,13.9,13.9,0,0,1,2.637,4.478A15.306,15.306,0,0,1,246.848,25.874Z" transform="translate(3361.152 -301.855)"/>
  </g>
</svg>
